<svg width="32" height="32" viewBox="0 0 32 32" fill="none" xmlns="http://www.w3.org/2000/svg">
<path d="M23.4667 3C24.019 3 24.4667 2.55228 24.4667 2C24.4667 1.44772 24.019 1 23.4667 1V3ZM2 2V1H1V2H2ZM2 30H1V31H2V30ZM30 30V31H31V30H30ZM31 12.2667C31 11.7144 30.5523 11.2667 30 11.2667C29.4477 11.2667 29 11.7144 29 12.2667H31ZM24.1738 1.29289C23.7832 0.902369 23.1501 0.902369 22.7596 1.29289C22.369 1.68342 22.369 2.31658 22.7596 2.70711L24.1738 1.29289ZM29.2929 9.24044C29.6834 9.63096 30.3166 9.63096 30.7071 9.24044C31.0976 8.84992 31.0976 8.21675 30.7071 7.82623L29.2929 9.24044ZM24.4667 2C24.4667 1.44772 24.019 1 23.4667 1C22.9144 1 22.4667 1.44772 22.4667 2H24.4667ZM22.4667 8.53333C22.4667 9.08562 22.9144 9.53333 23.4667 9.53333C24.019 9.53333 24.4667 9.08562 24.4667 8.53333H22.4667ZM23.4667 1H2V3H23.4667V1ZM1 2V30H3V2H1ZM2 31H30V29H2V31ZM31 30V12.2667H29V30H31ZM22.7596 2.70711L29.2929 9.24044L30.7071 7.82623L24.1738 1.29289L22.7596 2.70711ZM22.4667 2V8.53333H24.4667V2H22.4667Z" fill="#005BFF"/>
<path d="M24 8.5H30" stroke="#005BFF" stroke-width="2" stroke-linecap="round"/>
<path d="M8 21H23M8 17H23M8 13H23" stroke="#005BFF" stroke-width="2" stroke-linecap="round" stroke-linejoin="round"/>
</svg>
