<svg width="32" height="32" viewBox="0 0 32 32" fill="none" xmlns="http://www.w3.org/2000/svg">
<path d="M15.0667 4.55005C15.619 4.55005 16.0667 4.10233 16.0667 3.55005C16.0667 2.99776 15.619 2.55005 15.0667 2.55005V4.55005ZM2 3.55005V2.55005H1V3.55005H2ZM2 20.65H1V21.65H2V20.65ZM5.73333 21.65C6.28562 21.65 6.73333 21.2023 6.73333 20.65C6.73333 20.0978 6.28562 19.65 5.73333 19.65V21.65ZM17.8 16.85C17.8 17.4023 18.2477 17.85 18.8 17.85C19.3522 17.85 19.8 17.4023 19.8 16.85H17.8ZM18.8 5.45005V4.45005H17.8V5.45005H18.8ZM24.4 5.45005L25.205 4.85685L24.9053 4.45005H24.4V5.45005ZM30 13.0501H31V12.7214L30.805 12.4569L30 13.0501ZM30 20.6501V21.6501H31V20.6501H30ZM27.2 19.6501C26.6477 19.6501 26.2 20.0978 26.2 20.6501C26.2 21.2023 26.6477 21.6501 27.2 21.6501V19.6501ZM15.0667 19.65C14.5144 19.65 14.0667 20.0978 14.0667 20.65C14.0667 21.2023 14.5144 21.65 15.0667 21.65V19.65ZM20.6667 21.65C21.219 21.65 21.6667 21.2023 21.6667 20.65C21.6667 20.0978 21.219 19.65 20.6667 19.65V21.65ZM23.3519 8.67562C23.0347 8.22355 22.411 8.11425 21.9589 8.43149C21.5068 8.74874 21.3975 9.3724 21.7148 9.82448L23.3519 8.67562ZM24.0481 13.1495C24.3654 13.6016 24.989 13.7109 25.4411 13.3936C25.8932 13.0764 26.0025 12.4527 25.6852 12.0006L24.0481 13.1495ZM2 27.25C1.44772 27.25 1 27.6978 1 28.25C1 28.8023 1.44772 29.25 2 29.25V27.25ZM30 29.25C30.5523 29.25 31 28.8023 31 28.25C31 27.6978 30.5523 27.25 30 27.25V29.25ZM15.0667 2.55005H2V4.55005H15.0667V2.55005ZM1 3.55005V20.65H3V3.55005H1ZM2 21.65H5.73333V19.65H2V21.65ZM19.8 16.85V5.45005H17.8V16.85H19.8ZM18.8 6.45005H24.4V4.45005H18.8V6.45005ZM23.5949 6.04325L29.1949 13.6432L30.805 12.4569L25.205 4.85685L23.5949 6.04325ZM29 13.0501V20.6501H31V13.0501H29ZM30 19.6501H27.2V21.6501H30V19.6501ZM15.0667 21.65H20.6667V19.65H15.0667V21.65ZM21.7148 9.82448L24.0481 13.1495L25.6852 12.0006L23.3519 8.67562L21.7148 9.82448ZM2 29.25H30V27.25H2V29.25Z" fill="#005BFF"/>
<path fill-rule="evenodd" clip-rule="evenodd" d="M8.85 23.7C10.424 23.7 11.7 22.424 11.7 20.85C11.7 19.276 10.424 18 8.85 18C7.27599 18 6 19.276 6 20.85C6 22.424 7.27599 23.7 8.85 23.7Z" stroke="#005BFF" stroke-width="2" stroke-linecap="round"/>
<path fill-rule="evenodd" clip-rule="evenodd" d="M23.85 23.7C25.424 23.7 26.7 22.424 26.7 20.85C26.7 19.276 25.424 18 23.85 18C22.276 18 21 19.276 21 20.85C21 22.424 22.276 23.7 23.85 23.7Z" stroke="#005BFF" stroke-width="2" stroke-linecap="round"/>
</svg>
