<svg width="32" height="32" viewBox="0 0 32 32" fill="none" xmlns="http://www.w3.org/2000/svg">
<path d="M25.8392 27.1485C20.0018 32.3134 11.0762 32.1029 5.49041 26.5171C-0.314071 20.7127 -0.314071 11.3017 5.49041 5.49726C11.2949 -0.307217 20.7058 -0.307217 26.5103 5.49726C29.4109 8.3979 30.862 12.1992 30.8636 16.0009H26.8135" stroke="#005BFF" stroke-width="2" stroke-linecap="round"/>
<path d="M19.8505 1.64408C11.9214 -0.480507 3.7713 4.22495 1.64671 12.154C-0.477877 20.0831 4.22758 28.2332 12.1566 30.3578C19.787 32.4023 27.622 28.1218 30.0949 20.7302" stroke="#005BFF" stroke-width="2" stroke-linecap="round"/>
<path d="M16 9L16 16" stroke="#005BFF" stroke-width="2" stroke-linecap="round"/>
<path d="M20 14L16 16" stroke="#005BFF" stroke-width="2" stroke-linecap="round"/>
<path d="M4 16H2" stroke="#005BFF" stroke-width="2" stroke-linecap="round"/>
<path d="M16 4L16 2" stroke="#005BFF" stroke-width="2" stroke-linecap="round"/>
<path d="M16 30L16 28" stroke="#005BFF" stroke-width="2" stroke-linecap="round"/>
</svg>
