<svg width="28" height="29" viewBox="0 0 28 29" fill="none" xmlns="http://www.w3.org/2000/svg">
<path d="M12.1667 0.829346V2.54935C12.1667 5.09068 14.2267 7.15068 16.7667 7.15068H17.1667C17.9027 7.15068 18.5 7.74801 18.5 8.48401C18.5 9.22001 17.9027 9.81735 17.1667 9.81735H16.7667C13.364 9.81735 10.508 7.47868 9.71733 4.32001C5.52667 6.02668 2.66667 10.1387 2.66667 14.8173C2.66667 21.58 8.54 26.8547 15.3467 26.0747C20.3733 25.4973 24.5147 21.468 25.216 16.4693C25.764 12.5667 24.336 8.82401 21.496 6.31735C20.1587 5.13735 18.5653 4.28668 16.8347 3.84135C16.1213 3.65735 15.692 2.93068 15.8747 2.21735C16.0587 1.50401 16.7853 1.07468 17.4987 1.25868C19.64 1.80935 21.6107 2.86135 23.2587 4.31735C26.7653 7.41068 28.532 12.04 27.8573 16.84C26.9867 23.044 21.884 28.008 15.6493 28.7227C7.25733 29.6853 0 23.1693 0 14.8173C0 8.39201 4.364 2.83735 10.5013 1.25735L12.1667 0.830679V0.829346ZM11.6093 19.52C12.9293 20.84 15.0707 20.84 16.3907 19.52C16.9107 19 17.756 19 18.276 19.52C18.796 20.04 18.796 20.8853 18.276 21.4053C15.916 23.7667 12.084 23.7667 9.724 21.4053C9.204 20.8853 9.204 20.0413 9.724 19.52C10.244 19 11.0893 19 11.6093 19.52V19.52ZM8.28 12.84C8.52 13.0933 8.66667 13.4427 8.66667 13.792C8.66667 14.14 8.52 14.4893 8.28 14.744C8.02667 14.9853 7.68 15.1333 7.33333 15.1333C6.98667 15.1333 6.64 14.9867 6.38667 14.744C6.14667 14.4893 6 14.14 6 13.792C6 13.4427 6.14667 13.0933 6.38667 12.8387C6.89333 12.3427 7.77333 12.3427 8.28 12.8387V12.84ZM21.1733 12.5693C21.3467 12.636 21.48 12.7293 21.6133 12.8493C21.7333 12.9827 21.8267 13.1293 21.8933 13.2893C21.96 13.4493 22 13.624 22 13.7973C22 13.9707 21.96 14.144 21.8933 14.3053C21.8267 14.4653 21.7333 14.612 21.6133 14.7453C21.36 14.9853 21.0133 15.1333 20.6667 15.1333C20.32 15.1333 19.9733 14.9867 19.72 14.7467C19.6 14.6133 19.5067 14.4667 19.44 14.3053C19.3733 14.1453 19.3333 13.972 19.3333 13.7987C19.3333 13.6253 19.3733 13.4507 19.44 13.2907C19.5067 13.1307 19.6 12.984 19.72 12.8507C20.0933 12.4893 20.68 12.356 21.1733 12.5693V12.5693Z" fill="#005BFF"/>
</svg>
