<svg width="24" height="29" viewBox="0 0 24 29" fill="none" xmlns="http://www.w3.org/2000/svg">
<path d="M12.0003 0C15.0061 0 17.8888 1.19404 20.0142 3.31946C22.1396 5.44487 23.3337 8.32755 23.3337 11.3333C23.3337 13.7787 22.723 15.9613 21.3923 18.2187C21.2099 18.5172 20.9174 18.7321 20.578 18.817C20.2385 18.9018 19.8793 18.8498 19.5778 18.6722C19.2764 18.4946 19.0568 18.2057 18.9665 17.8676C18.8761 17.5296 18.9223 17.1696 19.095 16.8653C20.187 15.012 20.667 13.296 20.667 11.3333C20.667 9.03479 19.7539 6.83039 18.1286 5.20507C16.5033 3.57976 14.2989 2.66667 12.0003 2.66667C9.70178 2.66667 7.49738 3.57976 5.87207 5.20507C4.24675 6.83039 3.33366 9.03479 3.33366 11.3333C3.33366 15.3907 5.52299 18.8533 12.0003 24.8573C13.0726 23.8708 14.1174 22.8548 15.1337 21.8107C15.2554 21.6847 15.4007 21.5839 15.5613 21.5141C15.7219 21.4443 15.8948 21.4068 16.0699 21.4037C16.245 21.4007 16.419 21.4322 16.582 21.4964C16.745 21.5606 16.8937 21.6563 17.0197 21.778C17.1456 21.8997 17.2464 22.045 17.3162 22.2056C17.3861 22.3663 17.4236 22.5391 17.4266 22.7142C17.4296 22.8894 17.3981 23.0634 17.3339 23.2263C17.2697 23.3893 17.174 23.538 17.0523 23.664C15.7105 25.0379 14.3249 26.3684 12.8977 27.6533L12.0003 28.4667L11.103 27.6533C3.42033 20.6693 0.666992 16.5373 0.666992 11.3333C0.666992 8.32755 1.86104 5.44487 3.98645 3.31946C6.11186 1.19404 8.99454 0 12.0003 0V0ZM12.0003 5.33333C12.7883 5.33333 13.5685 5.48853 14.2964 5.79006C15.0244 6.09158 15.6858 6.53354 16.243 7.09069C16.8001 7.64784 17.2421 8.30928 17.5436 9.03723C17.8451 9.76519 18.0003 10.5454 18.0003 11.3333C18.0003 12.1213 17.8451 12.9015 17.5436 13.6294C17.2421 14.3574 16.8001 15.0188 16.243 15.576C15.6858 16.1331 15.0244 16.5751 14.2964 16.8766C13.5685 17.1781 12.7883 17.3333 12.0003 17.3333C10.409 17.3333 8.8829 16.7012 7.75769 15.576C6.63247 14.4508 6.00033 12.9246 6.00033 11.3333C6.00033 9.74203 6.63247 8.21591 7.75769 7.09069C8.8829 5.96547 10.409 5.33333 12.0003 5.33333V5.33333ZM12.0003 8C11.1163 8 10.2684 8.35119 9.6433 8.97631C9.01818 9.60143 8.66699 10.4493 8.66699 11.3333C8.66699 12.2174 9.01818 13.0652 9.6433 13.6904C10.2684 14.3155 11.1163 14.6667 12.0003 14.6667C12.8844 14.6667 13.7322 14.3155 14.3573 13.6904C14.9825 13.0652 15.3337 12.2174 15.3337 11.3333C15.3337 10.4493 14.9825 9.60143 14.3573 8.97631C13.7322 8.35119 12.8844 8 12.0003 8V8Z" fill="#005BFF"/>
</svg>
