<svg width="32" height="32" viewBox="0 0 32 32" fill="none" xmlns="http://www.w3.org/2000/svg">
<path fill-rule="evenodd" clip-rule="evenodd" d="M9 1H11C13.7614 1 16 3.23857 16 6H17C17.5523 6 18 6.44772 18 7C18 7.55228 17.5523 8 17 8H14V6C14 4.34315 12.6568 3 11 3V7.82737L5.00674 16H3V20.4648L9 24.4648V29H12V26C12 25.4477 12.4477 25 13 25C13.5523 25 14 25.4477 14 26V31H7V25.5352L1 21.5352V14H3.99326L9 7.17263V1ZM16 11C16 10.4477 16.4477 10 17 10H23C23.5523 10 24 10.4477 24 11C24 11.5523 23.5523 12 23 12H17C16.4477 12 16 11.5523 16 11ZM16 26C16 25.4477 16.4477 25 17 25H21V29H24V26C24 25.4477 24.4477 25 25 25C25.5523 25 26 25.4477 26 26V31H19V27H17C16.4477 27 16 26.5523 16 26Z" fill="#005BFF"/>
<path fill-rule="evenodd" clip-rule="evenodd" d="M22 8H14.5V6H22C26.9706 6 31 10.0294 31 15V21C31 24.3137 28.3137 27 25 27V25C27.2091 25 29 23.2091 29 21V15C29 11.134 25.866 8 22 8Z" fill="#005BFF"/>
<path d="M10 15C10.5523 15 11 14.5523 11 14C11 13.4477 10.5523 13 10 13C9.44771 13 9 13.4477 9 14C9 14.5523 9.44771 15 10 15Z" fill="#005BFF"/>
</svg>
