<svg width="30" height="30" viewBox="0 0 30 30" fill="none" xmlns="http://www.w3.org/2000/svg">
<path fill-rule="evenodd" clip-rule="evenodd" d="M6.0606 2.95584C12.7124 -1.98127 22.1071 -0.591262 27.0442 6.06054C27.3733 6.50402 27.2807 7.13036 26.8372 7.45952C26.3937 7.78868 25.7673 7.69601 25.4382 7.25253C21.1594 1.48769 13.0174 0.283023 7.25259 4.56182C1.48781 8.84059 0.283144 16.9825 4.56194 22.7474C8.84074 28.5122 16.9827 29.7168 22.7475 25.438C27.5472 21.8756 29.1872 15.633 27.1294 10.315C26.9301 9.79989 27.1861 9.22077 27.7011 9.02146C28.2162 8.82215 28.7953 9.07813 28.9946 9.5932C31.3687 15.7285 29.4802 22.9316 23.9394 27.044C17.2877 31.9811 7.89309 30.5911 2.95597 23.9394C-1.98114 17.2876 -0.591138 7.89294 6.0606 2.95584Z" fill="#005BFF"/>
<path fill-rule="evenodd" clip-rule="evenodd" d="M12.0001 7.99994H16.0001C18.2092 7.99994 20.0001 9.7908 20.0001 11.9999C20.0001 14.2091 18.2092 15.9999 16.0001 15.9999H14.0001V21.9999H12.0001V15.9999H11.0001V13.9999H12.0001V7.99994ZM14.0001 13.9999H16.0001C17.1046 13.9999 18.0001 13.1045 18.0001 11.9999C18.0001 10.8954 17.1046 9.99994 16.0001 9.99994H14.0001V13.9999Z" fill="#005BFF"/>
<path fill-rule="evenodd" clip-rule="evenodd" d="M16.0001 18.9999H11.0001V16.9999H16.0001V18.9999Z" fill="#005BFF"/>
</svg>
