<svg width="30" height="30" viewBox="0 0 30 30" fill="none" xmlns="http://www.w3.org/2000/svg">
<path fill-rule="evenodd" clip-rule="evenodd" d="M26.4024 11.2596C27.1127 13.4251 27.1963 15.7636 26.6193 17.9989C25.8614 20.9355 24.0196 23.4761 21.4645 25.1099C18.9094 26.7436 15.8303 27.3493 12.8468 26.8051C9.86323 26.2608 7.19635 24.6071 5.3826 22.1764L5.38259 22.1764C3.56885 19.7457 2.74277 16.7184 3.07045 13.7033C3.39813 10.6883 4.85531 7.90922 7.14883 5.92487C9.44243 3.94057 12.4023 2.89832 15.4331 3.00774C18.4639 3.11716 21.341 4.37013 23.4854 6.51463C24.0061 7.03533 24.8503 7.03534 25.371 6.51465C25.8917 5.99395 25.8918 5.14973 25.3711 4.62903C22.75 2.00794 19.2336 0.47654 15.5293 0.34281C11.8249 0.20907 8.20738 1.48294 5.4041 3.90819L5.40408 3.90821C2.60092 6.33348 0.819895 9.73016 0.419395 13.4152C0.0189003 17.1003 1.02854 20.8004 3.24537 23.7712C5.46219 26.742 8.7217 28.7633 12.3683 29.4285C16.0148 30.0936 19.7781 29.3534 22.901 27.3566C26.0239 25.3597 28.275 22.2545 29.2014 18.6654C29.9066 15.9333 29.8043 13.075 28.9362 10.4284C28.7067 9.72875 27.9534 9.34759 27.2537 9.57711C26.554 9.80663 26.1729 10.5599 26.4024 11.2596ZM18.4536 10.5394L15.0003 6.18852L11.5385 10.5502L6.09034 12.3301L9.66699 16.801V22.1832L15.0003 20.4054L20.304 22.1733L20.3929 16.6887L23.9199 12.2118L18.4536 10.5394ZM13.1288 12.836L15.0003 10.478L16.8804 12.8468L19.4141 13.6219L17.7412 15.7455L17.6966 18.4932L15.0003 17.5945L12.3337 18.4834V15.8655L10.577 13.6697L13.1288 12.836Z" fill="#005BFF"/>
</svg>
