<svg width="113" height="48" viewBox="0 0 113 48" fill="none" xmlns="http://www.w3.org/2000/svg">
<path d="M12.2007 0C5.48259 0 0 5.48259 0 12.2007C0 18.9188 5.48259 24.4014 12.2007 24.4014C18.996 24.4014 24.4014 18.9188 24.4014 12.2007C24.4014 5.48259 18.996 0 12.2007 0ZM12.2007 18.7644C8.57138 18.7644 5.63703 15.83 5.63703 12.2007C5.63703 8.57138 8.57138 5.63703 12.2007 5.63703C15.83 5.63703 18.7644 8.57138 18.7644 12.2007C18.7644 15.83 15.83 18.7644 12.2007 18.7644ZM68.4938 0C58.9958 0 51.3511 5.48259 51.3511 12.2007C51.3511 18.9188 58.9958 24.4014 68.4938 24.4014C77.9918 24.4014 85.6366 18.9188 85.6366 12.2007C85.6366 5.48259 77.9146 0 68.4938 0ZM68.4938 18.7644C61.9301 18.7644 57.0653 15.2895 57.0653 12.2779C57.0653 9.26635 61.9301 5.79147 68.4938 5.79147C75.0575 5.79147 79.9223 9.26635 79.9223 12.2779C79.9223 15.2895 74.9803 18.7644 68.4938 18.7644ZM109.343 0.540537C107.799 0.540537 106.486 1.85327 106.486 3.39766V12.9729L91.0419 0.694977C90.5014 0.231659 89.7292 0.617757 89.7292 1.31273V21.0037C89.7292 22.5481 91.0419 23.8609 92.5863 23.8609C94.1307 23.8609 95.4435 22.5481 95.4435 21.0037V11.5057L110.887 23.7836C111.428 24.247 112.2 23.8609 112.2 23.1659V3.39766C112.2 1.85327 110.887 0.540537 109.343 0.540537ZM46.8723 18.2238H37.1426L49.4978 1.85327C49.8839 1.31273 49.4978 0.540537 48.88 0.540537H30.9651C29.4207 0.540537 28.1079 1.85327 28.1079 3.39766C28.1079 4.94206 29.4207 6.25479 30.9651 6.25479H39.0731L26.6408 22.6253C26.2547 23.1659 26.6408 23.9381 27.3358 23.9381H46.8723C48.4167 23.9381 49.7294 22.6253 49.7294 21.081C49.7294 19.5366 48.4167 18.2238 46.8723 18.2238Z" fill="#005BFF"/>
<path d="M5.09693 32.5434H5.37493V30.8569H5.0228C2.91007 30.8569 1.72398 32.1542 1.72398 34.267V35.453H0.371094V36.9913H1.72398V44.0152H3.54019V36.9913H5.22666V35.453H3.54019V34.2114C3.54019 32.9697 4.2259 32.5434 5.09693 32.5434Z" fill="#001A34"/>
<path d="M12.2593 35.1936H12.1296C10.684 35.1936 9.70178 36.0461 9.29406 37.3249H9.257V35.453H7.44079V44.0152H9.257V40.216C9.257 38.1774 10.2022 37.3249 11.9813 37.3249H12.2593V35.1936Z" fill="#001A34"/>
<path d="M17.4736 44.2932C18.882 44.2932 19.8272 43.6816 20.3647 42.7549H20.4017V44.0152H22.2179V35.453H20.4017V36.7133H20.3647C19.8272 35.7866 18.882 35.1751 17.4736 35.1751C15.2126 35.1751 13.3037 36.8801 13.3037 39.7341C13.3037 42.5881 15.2126 44.2932 17.4736 44.2932ZM17.8627 42.514C16.2689 42.514 15.2311 41.365 15.2311 39.7341C15.2311 38.1032 16.2689 36.9542 17.8627 36.9542C19.4566 36.9542 20.4944 38.1032 20.4944 39.7341C20.4944 41.365 19.4566 42.514 17.8627 42.514Z" fill="#001A34"/>
<path d="M29.8711 35.1751C28.5553 35.1751 27.6287 35.7681 27.0727 36.7503H27.0356V35.453H25.2194V44.0152H27.0356V39.9194C27.0356 37.7882 27.9808 36.9913 29.3151 36.9913C30.5383 36.9913 31.2796 37.6028 31.2796 39.0669V44.0152H33.0958V38.7519C33.0958 36.1573 31.7059 35.1751 29.8711 35.1751Z" fill="#001A34"/>
<path d="M40.1513 44.2932C41.2633 44.2932 42.2084 43.9966 43.0795 43.4221L42.227 41.8839C41.6339 42.2546 40.8926 42.5325 40.0957 42.5325C38.4463 42.5325 37.3714 41.3464 37.3714 39.7341C37.3714 38.1218 38.4463 36.9357 40.0957 36.9357C40.8926 36.9357 41.6339 37.2137 42.227 37.5843L43.0795 36.0461C42.2084 35.4716 41.2633 35.1751 40.1513 35.1751C37.3899 35.1751 35.444 37.0098 35.444 39.7341C35.444 42.4584 37.3899 44.2932 40.1513 44.2932Z" fill="#001A34"/>
<path d="M47.1511 31.0423H45.3349V44.0152H47.1511V39.9194C47.1511 37.7882 48.0962 36.9913 49.4306 36.9913C50.6538 36.9913 51.3951 37.6028 51.3951 39.0669V44.0152H53.2113V38.7519C53.2113 36.1573 51.8028 35.1751 49.9866 35.1751C48.6708 35.1751 47.7441 35.7681 47.1881 36.7503H47.1511V31.0423Z" fill="#001A34"/>
<path d="M58.226 31.2276H56.0021V33.4515H58.226V31.2276ZM56.206 44.0152H58.0222V35.453H56.206V44.0152Z" fill="#001A34"/>
<path d="M63.4811 44.2932C65.4826 44.2932 66.817 43.4406 66.817 41.6986C66.817 40.5495 66.2239 39.8082 65.112 39.2893L63.5182 38.5295C62.7769 38.1774 62.5359 37.9179 62.5359 37.5102C62.5359 37.121 62.7954 36.8615 63.5923 36.8615C64.4263 36.8615 65.2232 37.1395 65.8718 37.4175L66.6131 35.8422C65.705 35.4345 64.6301 35.1751 63.6479 35.1751C61.7761 35.1751 60.6085 36.0276 60.6085 37.6028C60.6085 38.5851 61.1089 39.4561 62.4062 40.0677L63.9629 40.8275C64.6857 41.1797 64.8711 41.4391 64.8711 41.7912C64.8711 42.3287 64.4077 42.5881 63.5367 42.5881C62.5174 42.5881 61.6093 42.236 60.8124 41.7727L59.9969 43.385C60.9792 43.9596 62.2579 44.2932 63.4811 44.2932Z" fill="#001A34"/>
<path d="M71.1905 31.2276H68.9665V33.4515H71.1905V31.2276ZM69.1704 44.0152H70.9866V35.453H69.1704V44.0152Z" fill="#001A34"/>
<path d="M78.7186 35.1751C77.4027 35.1751 76.4761 35.7681 75.9201 36.7503H75.883V35.453H74.0668V44.0152H75.883V39.9194C75.883 37.7882 76.8282 36.9913 78.1626 36.9913C79.3857 36.9913 80.127 37.6028 80.127 39.0669V44.0152H81.9433V38.7519C81.9433 36.1573 80.5533 35.1751 78.7186 35.1751Z" fill="#001A34"/>
<path d="M89.1656 47.9997C91.3709 47.9997 93.113 47.3696 93.2057 44.0152V35.453H91.3895V36.7133H91.3524C90.815 35.7866 89.8698 35.1751 88.4613 35.1751C86.2003 35.1751 84.2915 36.8801 84.2915 39.7341C84.2915 42.5881 86.2003 44.2932 88.4613 44.2932C89.8698 44.2932 90.815 43.6816 91.3524 42.7549H91.3895V43.7742C91.3895 45.6646 90.7964 46.2391 89.1656 46.2391C88.3686 46.2391 87.2937 46.0908 86.2188 45.8499L85.8667 47.6105C86.9231 47.8144 88.1463 47.9997 89.1656 47.9997ZM88.8505 42.514C87.2567 42.514 86.2188 41.365 86.2188 39.7341C86.2188 38.1032 87.2567 36.9542 88.8505 36.9542C90.4443 36.9542 91.4821 38.1032 91.4821 39.7341C91.4821 41.365 90.4443 42.514 88.8505 42.514Z" fill="#001A34"/>
</svg>
